<svg width="24" height="25" viewBox="0 0 24 25" fill="none" xmlns="http://www.w3.org/2000/svg">
<g clip-path="url(#clip0_1504_192)">
<path fill-rule="evenodd" clip-rule="evenodd" d="M9.12984 24.4101C6.92203 24.4101 4.85297 23.5565 3.30234 22.0063L2.40187 21.1054C0.851717 19.5552 -0.00187683 17.4857 -0.00187683 15.2784C-0.00187683 13.071 0.851717 11.002 2.40187 9.45133L6.6839 5.1693L9.89578 8.38164L5.61375 12.6632C4.92094 13.356 4.53937 14.2846 4.53937 15.2784C4.53937 16.2721 4.92094 17.2007 5.61375 17.8935L6.51469 18.7945C7.95656 20.2363 10.3031 20.2363 11.745 18.7945L16.027 14.5124L19.2384 17.7243L14.9564 22.0063C13.4062 23.5565 11.3367 24.4101 9.12984 24.4101ZM7.08187 4.7718L9.2264 2.62727C9.27914 2.5746 9.35062 2.54502 9.42515 2.54502C9.49969 2.54502 9.57117 2.5746 9.6239 2.62727L12.4383 5.44118C12.4908 5.49408 12.5203 5.56561 12.5203 5.64016C12.5203 5.71471 12.4908 5.78624 12.4383 5.83914L10.2937 7.98368L7.08187 4.7718ZM16.4245 14.1145L18.5691 11.9699C18.6219 11.9173 18.6935 11.8878 18.768 11.8878C18.8426 11.8878 18.9142 11.9173 18.967 11.9699L21.7809 14.7843C21.8336 14.837 21.8632 14.9085 21.8632 14.9831C21.8632 15.0576 21.8336 15.1291 21.7809 15.1818L19.6364 17.3263L16.4245 14.1145ZM10.687 2.0568C10.6148 2.0568 10.5427 2.02961 10.4878 1.97477C10.3781 1.86461 10.3781 1.68649 10.4878 1.5768L11.5758 0.488363C11.6859 0.378676 11.8641 0.378676 11.9737 0.488363C12.0834 0.598519 12.0834 0.776644 11.9737 0.886332L10.8858 1.97477C10.8597 2.00085 10.8287 2.02152 10.7946 2.0356C10.7605 2.04968 10.7239 2.05688 10.687 2.0568ZM13.29 4.65977C13.2178 4.65977 13.1456 4.63258 13.0908 4.57774C12.9811 4.46758 12.9811 4.28946 13.0908 4.17977L14.1792 3.09133C14.232 3.03866 14.3034 3.00908 14.378 3.00908C14.4525 3.00908 14.524 3.03866 14.5767 3.09133C14.6029 3.11743 14.6237 3.14844 14.6379 3.18259C14.652 3.21673 14.6593 3.25334 14.6593 3.29032C14.6593 3.32729 14.652 3.3639 14.6379 3.39804C14.6237 3.43219 14.6029 3.4632 14.5767 3.4893L13.4887 4.57774C13.4626 4.60382 13.4317 4.62449 13.3976 4.63857C13.3634 4.65264 13.3269 4.65985 13.29 4.65977ZM12.7247 2.62211C12.653 2.62211 12.5808 2.59446 12.5259 2.53961C12.4997 2.51351 12.479 2.4825 12.4648 2.44836C12.4506 2.41421 12.4433 2.3776 12.4433 2.34063C12.4433 2.30366 12.4506 2.26705 12.4648 2.2329C12.479 2.19875 12.4997 2.16774 12.5259 2.14164L13.6139 1.05368C13.7236 0.943988 13.9022 0.943988 14.0119 1.05368C14.1216 1.16336 14.1216 1.34149 14.0119 1.45164L12.9234 2.53961C12.8974 2.56576 12.8664 2.5865 12.8323 2.60066C12.7982 2.61481 12.7616 2.6221 12.7247 2.62211ZM20.0297 11.3995C19.9575 11.3995 19.8853 11.3723 19.8305 11.3174C19.7208 11.2073 19.7208 11.0291 19.8305 10.9195L20.9189 9.83149C20.945 9.8053 20.9759 9.78452 21.01 9.77034C21.0441 9.75616 21.0807 9.74887 21.1177 9.74887C21.1546 9.74887 21.1912 9.75616 21.2253 9.77034C21.2594 9.78452 21.2904 9.8053 21.3164 9.83149C21.3426 9.85754 21.3634 9.88851 21.3775 9.92262C21.3917 9.95673 21.399 9.9933 21.399 10.0302C21.399 10.0672 21.3917 10.1037 21.3775 10.1379C21.3634 10.172 21.3426 10.2029 21.3164 10.229L20.2284 11.3174C20.2023 11.3435 20.1713 11.3642 20.1372 11.3783C20.1031 11.3923 20.0666 11.3995 20.0297 11.3995ZM22.6327 14.0024C22.5605 14.0024 22.4887 13.9752 22.4334 13.9204C22.3237 13.8102 22.3237 13.6321 22.4334 13.5224L23.5219 12.4345C23.6316 12.3243 23.8097 12.3248 23.9198 12.4345C23.9725 12.4872 24.0021 12.5587 24.0021 12.6332C24.0021 12.7077 23.9725 12.7792 23.9198 12.832L22.8314 13.9204C22.8053 13.9465 22.7743 13.9671 22.7402 13.9812C22.7061 13.9953 22.6696 14.0025 22.6327 14.0024ZM22.0673 11.9648C22.0118 11.9647 21.9574 11.9482 21.9112 11.9173C21.865 11.8864 21.829 11.8425 21.8077 11.7911C21.7865 11.7398 21.7809 11.6832 21.7917 11.6287C21.8026 11.5742 21.8293 11.5241 21.8686 11.4848L22.9566 10.3963C23.0667 10.2866 23.2448 10.2866 23.3545 10.3963C23.4642 10.506 23.4642 10.6846 23.3545 10.7943L22.2666 11.8823C22.2137 11.9351 22.1421 11.9648 22.0673 11.9648Z" fill="#B35E63"/>
<path fill-rule="evenodd" clip-rule="evenodd" d="M9.77757 14.5349C9.67913 14.5349 9.58585 14.4834 9.53429 14.3952C9.50306 14.3415 9.49049 14.2789 9.49854 14.2173C9.5066 14.1556 9.53482 14.0984 9.57882 14.0545L11.6273 12.0065L10.3893 10.7681C10.354 10.7329 10.3287 10.6891 10.316 10.641C10.3032 10.5929 10.3034 10.5423 10.3166 10.4943C10.33 10.4464 10.3557 10.4029 10.3913 10.3682C10.4269 10.3335 10.471 10.3087 10.5191 10.2965L15.6337 9.00649C15.7565 8.97556 15.8849 9.02993 15.9473 9.14009C16.0096 9.25024 15.9909 9.38853 15.9013 9.47806L13.844 11.5354L14.9859 12.6768C15.0206 12.7117 15.0457 12.755 15.0585 12.8025C15.0713 12.8501 15.0715 12.9001 15.059 12.9477C15.0463 12.9953 15.0214 13.0387 14.9868 13.0736C14.9522 13.1085 14.909 13.1338 14.8616 13.147L9.8521 14.5246C9.82772 14.5316 9.80241 14.5349 9.77757 14.5349Z" fill="#B35E63"/>
</g>
<defs>
<clipPath id="clip0_1504_192">
<rect width="24" height="24" fill="white" transform="translate(0 0.408203)"/>
</clipPath>
</defs>
</svg>
