<svg width="24" height="25" viewBox="0 0 24 25" fill="none" xmlns="http://www.w3.org/2000/svg">
<path d="M1.88672 17.6797L6.4873 18.9121L6.58398 18.9375L6.55859 19.0342L6.16992 20.4834L6.14453 20.5801L6.04785 20.5537L4.58789 20.1621C5.85262 21.4178 7.47386 22.2882 9.2627 22.6377C11.847 23.1422 14.5137 22.5113 16.5791 20.9062L16.6582 20.8447L16.7197 20.9238L17.6406 22.1084L17.7021 22.1875L17.623 22.249C15.7231 23.7255 13.3954 24.5077 11.0186 24.5078C10.3201 24.5078 9.62294 24.4406 8.9375 24.3066C6.49592 23.8298 4.31772 22.5331 2.74316 20.6641L2.17383 22.791L2.14844 22.8877L2.05176 22.8613L0.602539 22.4736L0.505859 22.4473L0.532227 22.3506L1.76465 17.75L1.79004 17.6533L1.88672 17.6797ZM15.0811 3.72363C17.9638 4.90044 20.1977 7.27295 21.209 10.2324C22.0132 12.5863 21.9777 15.1149 21.1494 17.4033L23.2754 16.835L23.3721 16.8086L23.3975 16.9053L23.7861 18.3545L23.8115 18.4512L23.7148 18.4766L19.1133 19.71L19.0166 19.7354L18.9902 19.6387L17.7578 15.0371L17.7324 14.9404L17.8291 14.9141L19.2773 14.5264L19.374 14.5L19.4004 14.5967L19.792 16.0596C20.2452 14.3434 20.1891 12.5075 19.5996 10.7822C18.7472 8.28755 16.8658 6.28876 14.4385 5.29785L14.3457 5.25977L14.3838 5.16699L14.9512 3.77832L14.9883 3.68555L15.0811 3.72363ZM8.76758 0.337891L12.1357 3.70508L12.2061 3.77637L12.1357 3.84668L8.76758 7.2168L8.69727 7.28711L8.62695 7.2168L7.56543 6.15625L7.49512 6.08496L8.64062 4.93945C6.91979 5.40252 5.35565 6.36564 4.16113 7.7334C3.30555 8.71321 2.6695 9.86535 2.2959 11.1113C1.92231 12.3575 1.81965 13.6699 1.99512 14.959L2.00879 15.0576L1.90918 15.0713L0.422852 15.2734L0.324219 15.2871L0.310547 15.1875C0.102414 13.6581 0.223745 12.1015 0.666992 10.623C1.11028 9.14463 1.86468 7.77781 2.87988 6.61523C4.50881 4.74988 6.71684 3.51963 9.12012 3.09375L7.56543 1.54004L7.49512 1.46875L8.69727 0.266602L8.76758 0.337891Z" fill="#B35E63" stroke="#B35E63" stroke-width="0.2"/>
</svg>
